HIERARCHY
ROOT Hips
{
	OFFSET 0.00 0.00 0.00
	CHANNELS 6 Xposition Yposition Zposition Xrotation Yrotation Zrotation
	JOINT Spine
	{
		OFFSET 0.00000 4.88528 0.00000
		CHANNELS 3 Xrotation Yrotation Zrotation
		JOINT Head
		{
			OFFSET 0.00000 16.49416 0.00000
			CHANNELS 3 Xrotation Yrotation Zrotation
			End Site
			{
				OFFSET 0.00000 4.52755 0.00000
			}
		}
		JOINT LeftShoulder
		{
			OFFSET 0.00000 10.66345 0.00000
			CHANNELS 3 Xrotation Yrotation Zrotation
			JOINT LeftArm
			{
				OFFSET 7.53191 0.00000 0.00000
				CHANNELS 3 Xrotation Yrotation Zrotation
				JOINT LeftForeArm
				{
					OFFSET 10.22920 0.00000 0.00000
					CHANNELS 3 Yrotation Zrotation Xrotation
					JOINT LeftHand
					{
						OFFSET 8.67349 0.00000 0.00000
						CHANNELS 3 Xrotation Yrotation Zrotation
						JOINT LeftHandThumb1
						{
							OFFSET 0.00000 0.00000 0.00000
							CHANNELS 3 Xrotation Zrotation Yrotation
							End Site
							{
								OFFSET 0.00000 0.00000 3.93700
							}
						}
						End Site
						{
							OFFSET 3.93700 0.00000 0.00000
						}
					}
				}
			}
		}
		JOINT RightShoulder
		{
			OFFSET 0.00000 10.66345 0.00000
			CHANNELS 3 Xrotation Yrotation Zrotation
			JOINT RightArm
			{
				OFFSET -7.53191 0.00000 0.00000
				CHANNELS 3 Xrotation Yrotation Zrotation
				JOINT RightForeArm
				{
					OFFSET -10.22920 0.00000 0.00000
					CHANNELS 3 Yrotation Zrotation Xrotation
					JOINT RightHand
					{
						OFFSET -8.67349 0.00000 0.00000
						CHANNELS 3 Xrotation Yrotation Zrotation
						JOINT RightHandThumb1
						{
							OFFSET 0.00000 0.00000 0.00000
							CHANNELS 3 Xrotation Zrotation Yrotation
							End Site
							{
								OFFSET 0.00000 0.00000 3.93700
							}
						}
						End Site
						{
							OFFSET -3.93700 0.00000 0.00000
						}
					}
				}
			}
		}
	}
	JOINT LeftUpLeg
	{
		OFFSET 2.67219 0.00000 0.00000
		CHANNELS 3 Xrotation Yrotation Zrotation
		JOINT LeftLeg
		{
			OFFSET 0.00000 -16.26339 0.00000
			CHANNELS 3 Xrotation Yrotation Zrotation
			JOINT LeftFoot
			{
				OFFSET 0.00000 -14.32816 0.00000
				CHANNELS 3 Xrotation Yrotation Zrotation
				JOINT LeftToeBase
				{
					OFFSET 0.00000 -1.30219 4.85985
					CHANNELS 3 Xrotation Yrotation Zrotation
					End Site
					{
						OFFSET 0.00000 0.00000 2.95275
					}
				}
			}
		}
	}
	JOINT RightUpLeg
	{
		OFFSET -2.67219 0.00000 0.00000
		CHANNELS 3 Xrotation Yrotation Zrotation
		JOINT RightLeg
		{
			OFFSET 0.00000 -16.26339 0.00000
			CHANNELS 3 Xrotation Yrotation Zrotation
			JOINT RightFoot
			{
				OFFSET 0.00000 -14.32816 0.00000
				CHANNELS 3 Xrotation Yrotation Zrotation
				JOINT RightToeBase
				{
					OFFSET 0.00000 -1.30219 4.85985
					CHANNELS 3 Xrotation Yrotation Zrotation
					End Site
					{
						OFFSET 0.00000 0.00000 2.95275
					}
				}
			}
		}
	}
}
MOTION
Frames: 20
Frame Time: 0.008333
 6.2152 30.9723 -20.0060 15.1240 -9.7549 -2.2700 -6.3293 5.5101 -2.1454 -1.9033 -7.1891 0.9849 47.3030 25.8525 3.6798 -48.7102 -12.0291 -86.2614 -117.4977 -0.0000 3.9691 -0.4148 -4.8251 -4.9196 33.1476 -0.0000 26.2537 2.9938 -2.4330 -21.2792 -22.1286 39.5214 95.1704 111.1604 0.0000 -1.6075 -0.6161 8.9305 3.9627 32.8623 0.0000 -24.3270 -49.7588 -14.2660 8.0897 45.9751 -0.0000 -0.0000 10.3649 32.8100 -8.1441 -8.3519 -0.0000 -0.0000 -6.8717 -9.8742 3.2673 16.2538 -0.0000 0.0000 -22.6166 -24.9700 1.4213 -4.9510 0.0000 0.0000
 6.1760 30.9940 -20.0690 14.8500 -10.2415 -2.2550 -5.9458 5.4963 -1.8330 -1.8375 -6.7969 0.7487 47.4361 25.9746 3.7491 -48.3268 -12.1625 -86.6147 -117.4192 -0.0000 4.3664 -0.3850 -4.7002 -4.6874 33.1476 -0.0000 26.2537 3.1481 -2.6239 -21.3354 -21.9693 39.5156 95.1954 111.0316 0.0000 -1.4307 -0.6076 8.9260 3.9099 32.8623 0.0000 -24.3270 -49.8081 -14.3242 7.9658 46.3461 0.0000 -0.0000 9.3623 29.6941 -7.6402 -8.6526 -0.0000 0.0000 -6.6702 -9.4350 3.3204 16.1263 0.0000 -0.0000 -22.4469 -24.8589 1.4566 -5.0307 -0.0000 0.0000
 6.1392 31.0173 -20.1210 14.6174 -10.7228 -2.1252 -5.6470 5.5013 -1.6731 -1.6442 -6.4335 0.5769 47.6840 26.1228 3.8174 -48.0255 -12.2779 -86.9059 -117.3508 -0.0000 4.5003 -0.3785 -4.7114 -4.5981 33.1476 -0.0000 26.2537 3.2495 -2.7487 -21.3963 -21.7275 39.5016 95.2488 110.8741 0.0000 -1.4050 -0.6175 9.0248 3.9304 32.8623 0.0000 -24.3270 -49.8643 -14.2052 7.7227 46.5468 -0.0000 -0.0000 8.6451 26.9591 -7.6608 -9.3524 0.0000 -0.0000 -6.4883 -9.1994 3.2541 15.9815 0.0000 -0.0000 -22.3086 -24.6159 1.4380 -4.8399 -0.0000 0.0000
 6.0993 31.0395 -20.1627 14.3877 -11.1932 -1.9709 -5.3879 5.4610 -1.5683 -1.3595 -5.9966 0.4173 47.9761 26.3300 3.8346 -47.7935 -12.4048 -87.1389 -117.2648 -0.0000 4.3565 -0.3767 -4.8191 -4.4747 33.1476 -0.0000 26.2537 3.4529 -2.8463 -21.4303 -21.5959 39.4531 95.3374 110.7250 0.0000 -1.3399 -0.6277 9.1000 3.9627 32.8623 0.0000 -24.3270 -49.9609 -13.9064 7.4391 46.7211 -0.0000 0.0000 7.8471 24.7077 -8.0751 -9.7476 -0.0000 0.0000 -6.2624 -9.0282 3.1765 15.7674 -0.0000 0.0000 -22.1878 -24.4022 1.3516 -4.7031 -0.0000 0.0000
 6.0708 31.0633 -20.2005 14.2192 -11.6195 -1.6788 -5.1701 5.4659 -1.6233 -1.0679 -5.6359 0.2952 48.1635 26.4618 3.9032 -47.5088 -12.5771 -87.2563 -117.2622 -0.0000 4.7458 -0.4679 -4.9548 -5.4019 33.1476 -0.0000 26.2537 3.5574 -2.9448 -21.4478 -21.3483 39.4603 95.3938 110.6009 0.0000 -1.4932 -0.6052 9.1804 3.7879 32.8623 0.0000 -24.3270 -50.0341 -13.3907 7.0505 46.5585 -0.0000 -0.0000 7.3225 22.8080 -8.4447 -11.1287 -0.0000 -0.0000 -6.1280 -9.0277 2.9340 15.5938 0.0000 -0.0000 -22.1000 -24.1056 1.2704 -4.4086 -0.0000 -0.0000
 6.0423 31.0868 -20.2332 14.1169 -12.0295 -1.3481 -5.0345 5.4971 -1.7276 -0.7546 -5.3026 0.2063 48.2674 26.5473 3.9928 -47.1854 -12.8489 -87.2456 -117.3057 -0.0000 4.6313 -0.4482 -4.8690 -5.2653 33.1476 -0.0000 26.2537 3.7606 -3.0953 -21.4197 -21.1728 39.4539 95.4230 110.5455 0.0000 -1.4660 -0.5822 9.1757 3.6465 32.8623 0.0000 -24.3270 -50.1328 -12.8664 6.6397 46.2794 0.0000 -0.0000 6.8384 21.4630 -9.5693 -11.6048 0.0000 0.0000 -6.0703 -9.0397 2.6585 15.4587 -0.0000 0.0000 -22.0426 -23.8249 1.1830 -4.1547 -0.0000 -0.0000
 6.0130 31.1082 -20.2602 14.0390 -12.4483 -1.0127 -4.9276 5.5611 -1.8412 -0.4573 -5.0163 0.0929 48.3396 26.6190 4.0690 -46.8729 -13.1358 -87.0894 -117.3326 -0.0000 4.3958 -0.4447 -4.9263 -5.1652 33.1476 -0.0000 26.2537 3.9444 -3.2412 -21.4154 -21.0306 39.4202 95.4889 110.4864 0.0000 -1.5085 -0.5789 9.2285 3.6054 32.8623 0.0000 -24.3270 -50.1892 -12.3426 6.2308 45.8194 -0.0000 0.0000 6.7035 20.4066 -10.3725 -13.0294 -0.0000 -0.0000 -6.0304 -9.0567 2.3751 15.3277 0.0000 -0.0000 -21.9588 -23.5199 1.1934 -3.9986 0.0000 -0.0000
 5.9825 31.1274 -20.2856 14.0294 -12.8914 -0.6745 -4.8913 5.6512 -1.9437 -0.1590 -4.7352 -0.0533 48.3921 26.7024 4.0831 -46.5957 -13.3885 -87.0215 -117.3614 -0.0000 4.3353 -0.4255 -4.9418 -4.9270 33.1476 -0.0000 26.2537 4.0997 -3.3607 -21.4259 -20.8755 39.3632 95.5883 110.4727 0.0000 -1.5457 -0.5280 9.1652 3.3110 32.8623 0.0000 -24.3270 -50.2691 -11.8781 5.8645 45.2709 0.0000 -0.0000 6.6216 19.4490 -11.5787 -13.2079 0.0000 -0.0000 -6.0590 -9.0014 2.1028 15.2029 0.0000 0.0000 -21.8992 -23.2112 1.1701 -3.7468 -0.0000 0.0000
 5.9530 31.1432 -20.3104 14.1278 -13.3026 -0.3769 -4.9759 5.7093 -1.9714 0.1049 -4.4878 -0.2543 48.5146 26.7893 4.0078 -46.4140 -13.6424 -86.7876 -117.3811 -0.0000 4.0409 -0.5551 -5.1232 -6.1921 33.1476 -0.0000 26.2537 4.2644 -3.4875 -21.4710 -20.7599 39.2984 95.6801 110.4715 0.0000 -1.5184 -0.5598 9.1355 3.5213 32.8623 0.0000 -24.3270 -50.4267 -11.5064 5.5652 44.6281 -0.0000 -0.0000 6.6711 18.5853 -13.1530 -12.9608 -0.0000 0.0000 -6.1630 -8.9728 1.8855 15.0647 -0.0000 0.0000 -21.8009 -22.8518 1.2176 -3.8953 -0.0000 -0.0000
 5.9207 31.1577 -20.3308 14.1980 -13.7573 -0.1152 -5.0181 5.7983 -1.9718 0.3117 -4.2162 -0.4722 48.6090 26.8656 3.8677 -46.2858 -13.8247 -86.4860 -117.4031 -0.0000 4.0248 -0.6054 -5.1821 -6.6726 33.1476 -0.0000 26.2537 4.3731 -3.5503 -21.5143 -20.6270 39.2252 95.7693 110.4741 0.0000 -1.5947 -0.6091 9.1814 3.8117 32.8623 0.0000 -24.3270 -50.4939 -11.1440 5.3698 43.8592 -0.0000 -0.0000 6.7992 17.7530 -14.5183 -12.9335 -0.0000 -0.0000 -6.2091 -8.8758 1.7111 14.8843 0.0000 0.0000 -21.6945 -22.5194 1.2734 -3.8540 0.0000 0.0000
 5.8888 31.1693 -20.3482 14.3350 -14.2234 0.0979 -5.1408 5.9344 -1.8930 0.4998 -3.9619 -0.7342 48.7236 26.9194 3.7245 -46.2027 -14.0370 -86.1814 -117.4289 -0.0000 3.7043 -0.5844 -5.1230 -6.5170 33.1476 -0.0000 26.2537 4.4516 -3.6288 -21.5839 -20.5079 39.2119 95.8591 110.4951 0.0000 -1.8365 -0.6381 9.1850 3.9911 32.8623 0.0000 -24.3270 -50.5715 -10.8251 5.2701 42.9695 0.0000 0.0000 6.9332 16.9354 -15.6414 -12.4094 -0.0000 0.0000 -6.2782 -8.7306 1.6148 14.6503 0.0000 -0.0000 -21.5770 -22.2344 1.2753 -3.7857 0.0000 0.0000
 5.8541 31.1788 -20.3608 14.4707 -14.7202 0.2314 -5.2691 6.0903 -1.7241 0.6609 -3.7061 -1.0093 48.8085 26.9573 3.5620 -46.1487 -13.9644 -85.8785 -117.4018 -0.0000 4.2611 -0.6658 -5.1951 -7.3132 33.1476 -0.0000 26.2537 4.4793 -3.6847 -21.6597 -20.4028 39.2289 95.9337 110.4926 0.0000 -1.9703 -0.6569 9.1833 4.1095 32.8623 0.0000 -24.3270 -50.5983 -10.6039 5.2825 42.0005 -0.0000 0.0000 7.1333 16.1067 -16.7894 -11.6507 -0.0000 0.0000 -6.3008 -8.5236 1.6165 14.3663 -0.0000 0.0000 -21.3753 -22.0017 1.4645 -3.9467 0.0000 0.0000
 5.8228 31.1862 -20.3655 14.6271 -15.2223 0.3699 -5.4212 6.2434 -1.5489 0.7996 -3.4609 -1.3289 48.9703 27.0126 3.3292 -46.1780 -13.9921 -85.5797 -117.3538 -0.0000 4.4853 -0.6530 -5.1810 -7.1938 33.1476 -0.0000 26.2537 4.5043 -3.7164 -21.7289 -20.3025 39.2774 95.9526 110.5140 0.0000 -2.5210 -0.4770 9.4935 2.8899 32.8623 0.0000 -24.3270 -50.6018 -10.3752 5.3144 40.9441 -0.0000 -0.0000 7.2816 15.3795 -17.3742 -11.1122 0.0000 -0.0000 -6.3081 -8.3431 1.6166 14.0354 -0.0000 0.0000 -21.3028 -21.7680 1.2847 -3.5888 0.0000 -0.0000
 5.7885 31.1922 -20.3677 14.7868 -15.7740 0.4327 -5.5767 6.4317 -1.2859 0.8926 -3.1774 -1.6653 49.0472 27.0271 3.1271 -46.1375 -13.9176 -85.2804 -117.3108 -0.0000 4.5981 -0.6691 -5.1783 -7.3729 33.1476 -0.0000 26.2537 4.5357 -3.7543 -21.7971 -20.3087 39.3671 95.9657 110.5076 0.0000 -2.6931 -0.4690 9.5372 2.8283 32.8623 0.0000 -24.3270 -50.5609 -10.1898 5.4652 39.8288 -0.0000 0.0000 7.4763 14.8179 -17.9322 -10.5145 0.0000 0.0000 -6.3181 -8.2391 1.6831 13.7466 -0.0000 0.0000 -21.0738 -21.3971 1.5111 -3.7225 -0.0000 -0.0000
 5.7567 31.1967 -20.3622 14.9223 -16.3609 0.4927 -5.7005 6.6288 -1.0325 0.9549 -2.8727 -1.9803 49.1336 27.0668 2.8929 -46.1367 -13.8133 -85.0141 -117.2491 -0.0000 4.5832 -0.6721 -5.1050 -7.5105 33.1476 -0.0000 26.2537 4.5752 -3.7567 -21.8354 -20.3407 39.4460 95.9437 110.5141 0.0000 -2.6493 -0.4959 9.4469 3.0186 32.8623 0.0000 -24.3270 -50.4528 -9.9909 5.6457 38.6796 0.0000 -0.0000 7.5588 14.4557 -18.1168 -9.9505 0.0000 0.0000 -6.2396 -8.0372 1.7759 13.3366 0.0000 -0.0000 -20.8961 -21.1485 1.4186 -3.6278 0.0000 -0.0000
 5.7262 31.1997 -20.3492 15.0575 -17.0000 0.5736 -5.8234 6.8771 -0.8182 1.0051 -2.5743 -2.2590 49.2584 27.0972 2.6768 -46.1553 -13.6060 -84.7809 -117.1834 -0.0000 4.6358 -0.7051 -5.1807 -7.7613 33.1476 -0.0000 26.2537 4.5061 -3.7033 -21.8515 -20.2757 39.5713 95.8540 110.5283 0.0000 -2.7005 -0.5146 9.3725 3.1567 32.8623 0.0000 -24.3270 -50.2974 -9.7684 5.8839 37.4942 -0.0000 0.0000 7.8020 14.2920 -18.6954 -9.7538 -0.0000 0.0000 -6.1568 -7.7734 1.8557 12.9359 0.0000 -0.0000 -20.8109 -20.9457 1.1365 -3.3277 0.0000 0.0000
 5.6957 31.1993 -20.3253 15.1327 -17.6304 0.6349 -5.8850 7.0845 -0.6158 1.0200 -2.2336 -2.5176 49.2958 27.1321 2.5081 -46.0862 -13.3636 -84.5758 -117.1282 -0.0000 4.6864 -0.6702 -5.1110 -7.4811 33.1476 -0.0000 26.2537 4.5303 -3.6772 -21.8434 -20.3941 39.7394 95.7380 110.5108 0.0000 -2.5921 -0.5500 9.3637 3.3764 32.8623 0.0000 -24.3270 -50.0896 -9.5886 6.1070 36.3681 -0.0000 -0.0000 8.0899 14.4067 -18.7730 -9.3068 -0.0000 0.0000 -5.9915 -7.5174 1.9268 12.5307 -0.0000 -0.0000 -20.6136 -20.7347 1.2227 -3.4591 0.0000 0.0000
 5.6654 31.1964 -20.2915 15.1741 -18.2505 0.6948 -5.9169 7.2879 -0.4345 1.0452 -1.8995 -2.7707 49.3106 27.1637 2.3770 -46.0240 -13.0260 -84.4034 -117.0488 -0.0000 4.8374 -0.6152 -5.0200 -6.9964 33.1476 -0.0000 26.2537 4.4592 -3.6043 -21.8254 -20.4328 39.9102 95.6170 110.5092 0.0000 -2.4395 -0.5600 9.2753 3.4704 32.8623 0.0000 -24.3270 -49.8632 -9.3859 6.3438 35.3193 0.0000 -0.0000 8.5611 14.6873 -19.1021 -8.9286 0.0000 -0.0000 -5.7972 -7.3608 1.9632 12.1782 0.0000 0.0000 -20.4846 -20.4786 1.2757 -3.3830 -0.0000 -0.0000
 5.6322 31.1902 -20.2499 15.1789 -18.8877 0.7455 -5.9144 7.5006 -0.2935 1.0539 -1.5376 -2.9427 49.3465 27.2125 2.2886 -45.9693 -12.6266 -84.2768 -116.9912 -0.0000 4.7710 -0.6314 -5.0816 -7.0923 33.1476 -0.0000 26.2537 4.4000 -3.5222 -21.8043 -20.5452 40.0362 95.5071 110.4713 0.0000 -2.4084 -0.5747 9.3775 3.5229 32.8623 0.0000 -24.3270 -49.5991 -9.2113 6.5760 34.3665 0.0000 -0.0000 9.1990 15.2900 -19.4642 -8.5792 -0.0000 -0.0000 -5.5514 -7.1622 1.9938 11.8305 0.0000 -0.0000 -20.4052 -20.2055 1.1364 -3.2012 0.0000 -0.0000
 5.5972 31.1811 -20.2001 15.1604 -19.4957 0.7535 -5.9030 7.6423 -0.1197 1.0625 -1.1614 -3.1278 49.4199 27.2716 2.1934 -45.9326 -12.1705 -84.1675 -116.9316 -0.0000 4.7255 -0.6160 -5.0598 -6.9502 33.1476 -0.0000 26.2537 4.3506 -3.4400 -21.8184 -20.7651 40.2060 95.4428 110.4046 0.0000 -2.2609 -0.5911 9.3109 3.6488 32.8623 0.0000 -24.3270 -49.3258 -9.0878 6.7754 33.5276 -0.0000 -0.0000 9.8591 16.1903 -19.6704 -8.1276 0.0000 0.0000 -5.2721 -7.0104 2.0408 11.4988 0.0000 -0.0000 -20.2849 -19.9519 1.2328 -3.2425 -0.0000 -0.0000
